  0
SECTION
  2
HEADER
  9
$ACADVER
  1
AC1009
  9
$INSBASE
 10
0.0
 20
0.0
 30
0.0
  9
$EXTMIN
 10
0.0
 20
0.0
 30
0.0
  9
$EXTMAX
 10
100.0
 20
100.0
 30
0.0
  9
$UNITMODE
 70
0
  9
$AUNITS
 70
0
  9
$ANGBASE
 50
0.0
  9
$ANGDIR
 70
0
  0
ENDSEC
  0
SECTION
  2
TABLES
  0
TABLE
  2
LTYPE
 70
19
  0
LTYPE
  2
CONTINUOUS
 70
0
  3
Solid
 72
65
 73
0
 40
0.0
  0
LTYPE
  2
CENTER
 70
0
  3
Center ____ _ ____ _ ____ _ ____ _ ____ _ ____
 72
65
 73
4
 40
2.0
 49
1.25
 49
-0.25
 49
0.25
 49
-0.25
  0
LTYPE
  2
CENTERX2
 70
0
  3
Center (2x) ________  __  ________  __  ________
 72
65
 73
4
 40
3.5
 49
2.5
 49
-0.25
 49
0.5
 49
-0.25
  0
LTYPE
  2
CENTER2
 70
0
  3
Center (.5x) ____ _ ____ _ ____ _ ____ _ ____
 72
65
 73
4
 40
1.0
 49
0.625
 49
-0.125
 49
0.125
 49
-0.125
  0
LTYPE
  2
DASHED
 70
0
  3
Dashed __ __ __ __ __ __ __ __ __ __ __ __ __ _
 72
65
 73
2
 40
0.6
 49
0.5
 49
-0.1
  0
LTYPE
  2
DASHEDX2
 70
0
  3
Dashed (2x) ____  ____  ____  ____  ____  ____
 72
65
 73
2
 40
1.2
 49
1.0
 49
-0.2
  0
LTYPE
  2
DASHED2
 70
0
  3
Dashed (.5x) _ _ _ _ _ _ _ _ _ _ _ _ _ _
 72
65
 73
2
 40
0.3
 49
0.25
 49
-0.05
  0
LTYPE
  2
PHANTOM
 70
0
  3
Phantom ______  __  __  ______  __  __  ______
 72
65
 73
6
 40
2.5
 49
1.25
 49
-0.25
 49
0.25
 49
-0.25
 49
0.25
 49
-0.25
  0
LTYPE
  2
PHANTOMX2
 70
0
  3
Phantom (2x)____________    ____    ____    ____________
 72
65
 73
6
 40
4.25
 49
2.5
 49
-0.25
 49
0.5
 49
-0.25
 49
0.5
 49
-0.25
  0
LTYPE
  2
PHANTOM2
 70
0
  3
Phantom (.5x) ___ _ _ ___ _ _ ___ _ _ ___ _ _ ___
 72
65
 73
6
 40
1.25
 49
0.625
 49
-0.125
 49
0.125
 49
-0.125
 49
0.125
 49
-0.125
  0
LTYPE
  2
DASHDOT
 70
0
  3
Dash dot __ . __ . __ . __ . __ . __ . __ . __
 72
65
 73
4
 40
1.4
 49
1.0
 49
-0.2
 49
0.0
 49
-0.2
  0
LTYPE
  2
DASHDOTX2
 70
0
  3
Dash dot (2x) ____  .  ____  .  ____  .  ____
 72
65
 73
4
 40
2.4
 49
2.0
 49
-0.2
 49
0.0
 49
-0.2
  0
LTYPE
  2
DASHDOT2
 70
0
  3
Dash dot (.5x) _ . _ . _ . _ . _ . _ . _ . _
 72
65
 73
4
 40
0.7
 49
0.5
 49
-0.1
 49
0.0
 49
-0.1
  0
LTYPE
  2
DOT
 70
0
  3
Dot .  .  .  .  .  .  .  .  .  .  .  .  .  .  .  .
 72
65
 73
2
 40
0.2
 49
0.0
 49
-0.2
  0
LTYPE
  2
DOTX2
 70
0
  3
Dot (2x) .    .    .    .    .    .    .    . 
 72
65
 73
2
 40
0.4
 49
0.0
 49
-0.4
  0
LTYPE
  2
DOT2
 70
0
  3
Dot (.5) . . . . . . . . . . . . . . . . . . . 
 72
65
 73
2
 40
0.1
 49
0.0
 49
-0.1
  0
LTYPE
  2
DIVIDE
 70
0
  3
Divide __ . . __ . . __ . . __ . . __ . . __
 72
65
 73
6
 40
1.6
 49
1.0
 49
-0.2
 49
0.0
 49
-0.2
 49
0.0
 49
-0.2
  0
LTYPE
  2
DIVIDEX2
 70
0
  3
Divide (2x) ____  . .  ____  . .  ____  . .  ____
 72
65
 73
6
 40
2.6
 49
2.0
 49
-0.2
 49
0.0
 49
-0.2
 49
0.0
 49
-0.2
  0
LTYPE
  2
DIVIDE2
 70
0
  3
Divide(.5x) _ . _ . _ . _ . _ . _ . _ . _
 72
65
 73
6
 40
0.8
 49
0.5
 49
-0.1
 49
0.0
 49
-0.1
 49
0.0
 49
-0.1
  0
ENDTAB
  0
TABLE
  2
LAYER
 70
7
  0
LAYER
  2
DIMENSIONS
 70
0
 62
1
  6
CONTINUOUS
  0
LAYER
  2
TABLEBACKGROUND
 70
0
 62
1
  6
CONTINUOUS
  0
LAYER
  2
TABLECONTENT
 70
0
 62
1
  6
CONTINUOUS
  0
LAYER
  2
TABLEGRID
 70
0
 62
1
  6
CONTINUOUS
  0
LAYER
  2
VIEWPORTS
 70
0
 62
7
  6
CONTINUOUS
  0
LAYER
  2
wall
 70
0
 62
7
  6
CONTINUOUS
  0
LAYER
  2
door
 70
0
 62
3
  6
CONTINUOUS
  0
ENDTAB
  0
TABLE
  2
STYLE
 70
12
  0
STYLE
  2
STANDARD
 70
0
 40
0.0
 41
1.0
 42
1.0
 50
0.0
 71
0
  3
arial.ttf
  4

  0
STYLE
  2
ARIAL
 70
0
 40
0.0
 41
1.0
 42
1.0
 50
0.0
 71
0
  3
arial.ttf
  4

  0
STYLE
  2
ARIAL_BOLD
 70
0
 40
0.0
 41
1.0
 42
1.0
 50
0.0
 71
0
  3
arialbd.ttf
  4

  0
STYLE
  2
ARIAL_ITALIC
 70
0
 40
0.0
 41
1.0
 42
1.0
 50
0.0
 71
0
  3
ariali.ttf
  4

  0
STYLE
  2
ARIAL_BOLD_ITALIC
 70
0
 40
0.0
 41
1.0
 42
1.0
 50
0.0
 71
0
  3
arialbi.ttf
  4

  0
STYLE
  2
ARIAL_BLACK
 70
0
 40
0.0
 41
1.0
 42
1.0
 50
0.0
 71
0
  3
ariblk.ttf
  4

  0
STYLE
  2
ISOCPEUR
 70
0
 40
0.0
 41
1.0
 42
1.0
 50
0.0
 71
0
  3
isocpeur.ttf
  4

  0
STYLE
  2
ISOCPEUR_ITALIC
 70
0
 40
0.0
 41
1.0
 42
1.0
 50
0.0
 71
0
  3
isocpeui.ttf
  4

  0
STYLE
  2
TIMES
 70
0
 40
0.0
 41
1.0
 42
1.0
 50
0.0
 71
0
  3
times.ttf
  4

  0
STYLE
  2
TIMES_BOLD
 70
0
 40
0.0
 41
1.0
 42
1.0
 50
0.0
 71
0
  3
timesbd.ttf
  4

  0
STYLE
  2
TIMES_ITALIC
 70
0
 40
0.0
 41
1.0
 42
1.0
 50
0.0
 71
0
  3
timesi.ttf
  4

  0
STYLE
  2
TIMES_BOLD_ITALIC
 70
0
 40
0.0
 41
1.0
 42
1.0
 50
0.0
 71
0
  3
timesbi.ttf
  4

  0
ENDTAB
  0
TABLE
  2
VIEW
 70
0
  0
ENDTAB
  0
TABLE
  2
APPID
 70
1
  0
APPID
  2
DXFWRITE
 70
0
  0
ENDTAB
  0
TABLE
  2
VPORT
 70
0
  0
ENDTAB
  0
TABLE
  2
UCS
 70
0
  0
ENDTAB
  0
ENDSEC
  0
SECTION
  2
BLOCKS
  0
BLOCK
  8
0
  2
DOOR-01
  3
DOOR-01
 70
0
 10
500.0
 20
0.0
 30
0.0
  0
LINE
  8
0
 10
0.0
 20
0.0
 30
0.0
 11
0.0
 21
-900.0
 31
0.0
  0
LINE
  8
0
 10
0.0
 20
-900.0
 30
0.0
 11
100.0
 21
-900.0
 31
0.0
  0
LINE
  8
0
 10
100.0
 20
-900.0
 30
0.0
 11
100.0
 21
0.0
 31
0.0
  0
ARC
  8
0
 10
100.0
 20
0.0
 30
0.0
 40
900.0
 50
270.0
 51
360.0
  0
ENDBLK
  0
BLOCK
  8
0
  2
DOOR-02
  3
DOOR-02
 70
0
 10
0.0
 20
-500.0
 30
0.0
  0
LINE
  8
0
 10
0.0
 20
0.0
 30
0.0
 11
900.0
 21
0.0
 31
0.0
  0
LINE
  8
0
 10
900.0
 20
0.0
 30
0.0
 11
900.0
 21
-100.0
 31
0.0
  0
LINE
  8
0
 10
900.0
 20
-100.0
 30
0.0
 11
0.0
 21
-100.0
 31
0.0
  0
ARC
  8
0
 10
0.0
 20
-100.0
 30
0.0
 40
900.0
 50
270.0
 51
360.0
  0
ENDBLK
  0
ENDSEC
  0
SECTION
  2
ENTITIES
  0
VIEWPORT
  8
VIEWPORTS
 67
1
 10
0.0
 20
0.0
 30
0.0
 40
1.0
 41
1.0
 68
1
 69
1
1001
ACAD
1000
MVIEW
1002
{
1070
16
1010
0.0
1020
0.0
1030
0.0
1010
0.0
1020
0.0
1030
0.0
1040
0.0
1040
1.0
1040
0.0
1040
0.0
1040
50.0
1040
0.0
1040
0.0
1070
0
1070
100
1070
1
1070
3
1070
0
1070
0
1070
0
1070
0
1040
0.0
1040
0.0
1040
0.0
1040
0.1
1040
0.1
1040
0.1
1040
0.1
1070
0
1002
{
1002
}
1002
}
  0
LINE
 39
1.0
 62
256
  8
wall
 10
43300.00000000001
 20
23900.000000000004
 30
0.0
 11
44900.00000000001
 21
23900.000000000004
 31
0.0
  0
LINE
 39
1.0
 62
256
  8
wall
 10
44900.00000000001
 20
23900.000000000004
 30
0.0
 11
44900.00000000001
 21
22800.0
 31
0.0
  0
LINE
 39
1.0
 62
256
  8
wall
 10
44900.00000000001
 20
22800.0
 30
0.0
 11
45900.00000000001
 21
22800.0
 31
0.0
  0
LINE
 39
1.0
 62
256
  8
wall
 10
45900.00000000001
 20
22800.0
 30
0.0
 11
45900.00000000001
 21
20900.000000000004
 31
0.0
  0
LINE
 39
1.0
 62
256
  8
wall
 10
45900.00000000001
 20
20900.000000000004
 30
0.0
 11
44900.00000000001
 21
20900.000000000004
 31
0.0
  0
LINE
 39
1.0
 62
256
  8
wall
 10
44900.00000000001
 20
20900.000000000004
 30
0.0
 11
44900.00000000001
 21
14700.000000000002
 31
0.0
  0
LINE
 39
1.0
 62
256
  8
wall
 10
44900.00000000001
 20
14700.000000000002
 30
0.0
 11
45900.00000000001
 21
14700.000000000002
 31
0.0
  0
LINE
 39
1.0
 62
256
  8
wall
 10
45900.00000000001
 20
14700.000000000002
 30
0.0
 11
45900.00000000001
 21
12900.0
 31
0.0
  0
LINE
 39
1.0
 62
256
  8
wall
 10
45900.00000000001
 20
12900.0
 30
0.0
 11
44900.00000000001
 21
12900.0
 31
0.0
  0
LINE
 39
1.0
 62
256
  8
wall
 10
44900.00000000001
 20
12900.0
 30
0.0
 11
44900.00000000001
 21
11000.0
 31
0.0
  0
LINE
 39
1.0
 62
256
  8
wall
 10
44900.00000000001
 20
11000.0
 30
0.0
 11
45900.00000000001
 21
11000.0
 31
0.0
  0
LINE
 39
1.0
 62
256
  8
wall
 10
45900.00000000001
 20
11000.0
 30
0.0
 11
45900.00000000001
 21
9200.000000000002
 31
0.0
  0
LINE
 39
1.0
 62
256
  8
wall
 10
45900.00000000001
 20
9200.000000000002
 30
0.0
 11
44900.00000000001
 21
9200.000000000002
 31
0.0
  0
LINE
 39
1.0
 62
256
  8
wall
 10
44900.00000000001
 20
9200.000000000002
 30
0.0
 11
44900.00000000001
 21
3000.0
 31
0.0
  0
LINE
 39
1.0
 62
256
  8
wall
 10
44900.00000000001
 20
3000.0
 30
0.0
 11
45900.00000000001
 21
3000.0
 31
0.0
  0
LINE
 39
1.0
 62
256
  8
wall
 10
45900.00000000001
 20
3000.0
 30
0.0
 11
45900.00000000001
 21
1600.0
 31
0.0
  0
LINE
 39
1.0
 62
256
  8
wall
 10
45900.00000000001
 20
1600.0
 30
0.0
 11
44900.00000000001
 21
1600.0
 31
0.0
  0
LINE
 39
1.0
 62
256
  8
wall
 10
44900.00000000001
 20
1600.0
 30
0.0
 11
44900.00000000001
 21
100.0
 31
0.0
  0
LINE
 39
1.0
 62
256
  8
wall
 10
44900.00000000001
 20
100.0
 30
0.0
 11
42600.0
 21
100.0
 31
0.0
  0
LINE
 39
1.0
 62
256
  8
wall
 10
42600.0
 20
100.0
 30
0.0
 11
42600.0
 21
7900.0
 31
0.0
  0
LINE
 39
1.0
 62
256
  8
wall
 10
42600.0
 20
7900.0
 30
0.0
 11
40000.0
 21
7900.0
 31
0.0
  0
LINE
 39
1.0
 62
256
  8
wall
 10
40000.0
 20
7900.0
 30
0.0
 11
40000.0
 21
8300.0
 31
0.0
  0
LINE
 39
1.0
 62
256
  8
wall
 10
40000.0
 20
8300.0
 30
0.0
 11
37000.0
 21
8300.0
 31
0.0
  0
LINE
 39
1.0
 62
256
  8
wall
 10
37000.0
 20
8300.0
 30
0.0
 11
37000.0
 21
7900.0
 31
0.0
  0
LINE
 39
1.0
 62
256
  8
wall
 10
37000.0
 20
7900.0
 30
0.0
 11
36700.0
 21
7900.0
 31
0.0
  0
LINE
 39
1.0
 62
256
  8
wall
 10
36700.0
 20
7900.0
 30
0.0
 11
36700.0
 21
6900.0
 31
0.0
  0
LINE
 39
1.0
 62
256
  8
wall
 10
36700.0
 20
6900.0
 30
0.0
 11
34900.0
 21
6900.0
 31
0.0
  0
LINE
 39
1.0
 62
256
  8
wall
 10
34900.0
 20
6900.0
 30
0.0
 11
34900.0
 21
7900.0
 31
0.0
  0
LINE
 39
1.0
 62
256
  8
wall
 10
34900.0
 20
7900.0
 30
0.0
 11
32100.0
 21
7900.0
 31
0.0
  0
LINE
 39
1.0
 62
256
  8
wall
 10
32100.0
 20
7900.0
 30
0.0
 11
32100.0
 21
8400.0
 31
0.0
  0
LINE
 39
1.0
 62
256
  8
wall
 10
32100.0
 20
8400.0
 30
0.0
 11
31600.0
 21
8400.0
 31
0.0
  0
LINE
 39
1.0
 62
256
  8
wall
 10
31600.0
 20
8400.0
 30
0.0
 11
31600.0
 21
7900.0
 31
0.0
  0
LINE
 39
1.0
 62
256
  8
wall
 10
31600.0
 20
7900.0
 30
0.0
 11
24200.000000000004
 21
7900.0
 31
0.0
  0
LINE
 39
1.0
 62
256
  8
wall
 10
24200.000000000004
 20
7900.0
 30
0.0
 11
24200.000000000004
 21
8300.0
 31
0.0
  0
LINE
 39
1.0
 62
256
  8
wall
 10
24200.000000000004
 20
8300.0
 30
0.0
 11
23700.000000000004
 21
8300.0
 31
0.0
  0
LINE
 39
1.0
 62
256
  8
wall
 10
23700.000000000004
 20
8300.0
 30
0.0
 11
23700.000000000004
 21
7900.0
 31
0.0
  0
LINE
 39
1.0
 62
256
  8
wall
 10
23700.000000000004
 20
7900.0
 30
0.0
 11
20000.0
 21
7900.0
 31
0.0
  0
LINE
 39
1.0
 62
256
  8
wall
 10
20000.0
 20
7900.0
 30
0.0
 11
20000.0
 21
6900.0
 31
0.0
  0
LINE
 39
1.0
 62
256
  8
wall
 10
20000.0
 20
6900.0
 30
0.0
 11
18100.0
 21
6900.0
 31
0.0
  0
LINE
 39
1.0
 62
256
  8
wall
 10
18100.0
 20
6900.0
 30
0.0
 11
18100.0
 21
7900.0
 31
0.0
  0
LINE
 39
1.0
 62
256
  8
wall
 10
18100.0
 20
7900.0
 30
0.0
 11
16200.0
 21
7900.0
 31
0.0
  0
LINE
 39
1.0
 62
256
  8
wall
 10
16200.0
 20
7900.0
 30
0.0
 11
16200.0
 21
8300.0
 31
0.0
  0
LINE
 39
1.0
 62
256
  8
wall
 10
16200.0
 20
8300.0
 30
0.0
 11
16400.000000000004
 21
8300.0
 31
0.0
  0
LINE
 39
1.0
 62
256
  8
wall
 10
16400.000000000004
 20
8300.0
 30
0.0
 11
16400.000000000004
 21
9800.0
 31
0.0
  0
LINE
 39
1.0
 62
256
  8
wall
 10
16400.000000000004
 20
9800.0
 30
0.0
 11
16100.000000000002
 21
9800.0
 31
0.0
  0
LINE
 39
1.0
 62
256
  8
wall
 10
16100.000000000002
 20
9800.0
 30
0.0
 11
16100.000000000002
 21
10300.0
 31
0.0
  0
LINE
 39
1.0
 62
256
  8
wall
 10
16100.000000000002
 20
10300.0
 30
0.0
 11
14700.000000000002
 21
10300.0
 31
0.0
  0
LINE
 39
1.0
 62
256
  8
wall
 10
14700.000000000002
 20
10300.0
 30
0.0
 11
43300.00000000001
 21
23900.000000000004
 31
0.0
  0
LINE
 39
1.0
 62
256
  8
wall
 10
42700.0
 20
10300.0
 30
0.0
 11
42700.0
 21
16200.0
 31
0.0
  0
LINE
 39
1.0
 62
256
  8
wall
 10
42700.0
 20
16200.0
 30
0.0
 11
35100.0
 21
16200.0
 31
0.0
  0
LINE
 39
1.0
 62
256
  8
wall
 10
35100.0
 20
16200.0
 30
0.0
 11
35100.0
 21
16400.000000000004
 31
0.0
  0
LINE
 39
1.0
 62
256
  8
wall
 10
35100.0
 20
16400.000000000004
 30
0.0
 11
33800.00000000001
 21
16400.000000000004
 31
0.0
  0
LINE
 39
1.0
 62
256
  8
wall
 10
33800.00000000001
 20
16400.000000000004
 30
0.0
 11
33800.00000000001
 21
16200.0
 31
0.0
  0
LINE
 39
1.0
 62
256
  8
wall
 10
33800.00000000001
 20
16200.0
 30
0.0
 11
15700.000000000002
 21
16200.0
 31
0.0
  0
LINE
 39
1.0
 62
256
  8
wall
 10
15700.000000000002
 20
16200.0
 30
0.0
 11
15700.000000000002
 21
15700.000000000002
 31
0.0
  0
LINE
 39
1.0
 62
256
  8
wall
 10
15700.000000000002
 20
15700.000000000002
 30
0.0
 11
18000.0
 21
15700.000000000002
 31
0.0
  0
LINE
 39
1.0
 62
256
  8
wall
 10
18000.0
 20
15700.000000000002
 30
0.0
 11
42700.0
 21
10300.0
 31
0.0
  0
INSERT
  8
door
  2
DOOR-01
 10
32945.911555840794
 20
18660.759889981862
 30
0.0
  0
INSERT
  8
door
  2
DOOR-01
 10
15434.95335787517
 20
18714.753210960873
 30
0.0
  0
INSERT
  8
door
  2
DOOR-01
 10
41789.4016657431
 20
9679.172448639583
 30
0.0
  0
INSERT
  8
door
  2
DOOR-02
 10
48.312489498670175
 20
13909.531751452467
 30
0.0
  0
INSERT
  8
door
  2
DOOR-01
 10
18784.535636910754
 20
9727.715198053013
 30
0.0
  0
INSERT
  8
door
  2
DOOR-01
 10
35868.36727754322
 20
18651.85037771982
 30
0.0
  0
INSERT
  8
door
  2
DOOR-01
 10
32703.771451499597
 20
16072.637917040161
 30
0.0
  0
INSERT
  8
door
  2
DOOR-01
 10
21286.264408859093
 20
18685.419185966366
 30
0.0
  0
INSERT
  8
door
  2
DOOR-01
 10
9955.04050804644
 20
15999.585535655535
 30
0.0
  0
INSERT
  8
door
  2
DOOR-01
 10
18362.824352151998
 20
18686.910926689827
 30
0.0
  0
INSERT
  8
door
  2
DOOR-02
 10
45831.95237763548
 20
21511.191714079585
 30
0.0
  0
INSERT
  8
door
  2
DOOR-01
 10
32597.414796172572
 20
9689.21715988874
 30
0.0
  0
INSERT
  8
door
  2
DOOR-01
 10
30059.591037421087
 20
18661.36113065969
 30
0.0
  0
INSERT
  8
door
  2
DOOR-01
 10
30077.388023319578
 20
9694.909782668225
 30
0.0
  0
INSERT
  8
door
  2
DOOR-01
 10
18809.898006942647
 20
16113.49349683315
 30
0.0
  0
INSERT
  8
door
  2
DOOR-01
 10
38831.90734517838
 20
18635.282483887222
 30
0.0
  0
INSERT
  8
door
  2
DOOR-01
 10
27109.397519916372
 20
18667.695419818676
 30
0.0
  0
INSERT
  8
door
  2
DOOR-01
 10
41837.49518918913
 20
18622.87190828483
 30
0.0
  0
INSERT
  8
door
  2
DOOR-01
 10
41785.80822003894
 20
16057.684074174023
 30
0.0
  0
INSERT
  8
door
  2
DOOR-01
 10
29734.634947964012
 20
16085.718610962751
 30
0.0
  0
INSERT
  8
door
  2
DOOR-01
 10
24228.464852529378
 20
18670.70219624746
 30
0.0
  0
INSERT
  8
door
  2
DOOR-01
 10
916.909530519316
 20
15989.87705021327
 30
0.0
  0
ENDSEC
  0
EOF
